<?xml version="1.0" standalone="no"?>
<!DOCTYPE svg PUBLIC "-//W3C//DTD SVG 20010904//EN"
 "http://www.w3.org/TR/2001/REC-SVG-20010904/DTD/svg10.dtd">
<svg version="1.0" xmlns="http://www.w3.org/2000/svg"
 width="800.000000pt" height="557.000000pt" viewBox="0 0 800.000000 557.000000"
 preserveAspectRatio="xMidYMid meet">
<metadata>
Created by potrace 1.16, written by Peter Selinger 2001-2019
</metadata>
<g transform="translate(0.000000,557.000000) scale(0.100000,-0.100000)"
fill="#000000" stroke="none">
<path d="M2 4938 c1 -348 3 -605 5 -570 4 59 14 79 26 48 9 -22 -11 -314 -23
-335 -6 -13 -9 -125 -8 -308 1 -178 4 -255 8 -203 3 47 7 74 9 60 2 -23 3 -23
10 -5 5 11 7 30 5 43 -3 12 0 22 6 22 6 0 10 28 10 66 0 41 4 63 10 59 6 -4
10 6 11 22 5 126 9 164 17 180 5 10 10 62 11 116 1 54 5 105 8 114 3 8 0 18
-7 23 -9 5 -9 13 -2 27 11 21 17 64 38 293 24 265 29 307 41 321 15 19 35 217
27 269 -4 23 -2 58 4 78 6 20 16 92 23 160 l12 122 528 0 c351 0 528 -3 531
-10 6 -19 73 -24 90 -6 15 14 231 16 2315 16 1264 0 2322 0 2352 0 43 0 51 -3
42 -13 -8 -10 -7 -19 4 -33 14 -18 14 -17 15 13 l0 31 61 4 c34 1 64 1 68 -2
4 -3 15 -24 24 -46 9 -23 25 -57 36 -75 28 -45 28 -14 2 61 -11 30 -18 56 -17
58 4 4 157 4 161 0 1 -2 -4 -74 -12 -161 l-14 -159 35 -81 c51 -122 56 -149
58 -344 4 -366 -1 -433 -37 -433 -9 0 -15 -9 -15 -23 0 -29 -36 -139 -60 -187
-23 -43 -86 -103 -102 -98 -7 3 -19 -1 -26 -9 -8 -8 -36 -13 -69 -13 -54 0
-58 2 -100 45 -47 49 -52 64 -25 67 9 1 24 2 32 3 8 1 25 7 37 13 19 10 27 10
47 -3 19 -12 29 -14 44 -6 37 20 80 116 85 191 2 31 0 35 -22 32 -13 -1 -37
-8 -55 -16 -77 -34 -209 -75 -401 -126 -124 -32 -380 -81 -495 -95 -30 -4
-109 -15 -175 -26 -66 -10 -158 -23 -205 -29 -154 -19 -396 -58 -360 -59 32 0
78 5 250 29 124 17 315 41 390 49 78 8 233 31 381 56 93 16 150 18 84 4 -49
-11 -131 -26 -210 -38 -33 -6 -87 -15 -120 -21 -58 -10 -228 -35 -350 -50
-170 -21 -377 -51 -560 -80 -33 -5 -143 -19 -245 -30 -102 -12 -232 -27 -290
-35 -58 -8 -150 -19 -205 -25 -55 -7 -131 -16 -170 -21 -38 -5 -169 -20 -290
-34 -121 -13 -258 -29 -305 -35 -417 -51 -1008 -95 -1169 -86 -114 6 -149 16
-55 16 71 0 363 19 454 30 40 4 -55 7 -240 6 -168 -1 -394 3 -504 8 l-199 9 7
-39 c12 -68 28 -138 41 -179 22 -65 39 -155 31 -162 -4 -4 -16 -2 -26 5 -17
10 -20 10 -20 -3 0 -21 -37 -14 -54 11 -13 19 -22 51 -70 253 -14 57 -27 106
-30 108 -2 3 -33 -3 -68 -11 -132 -34 -215 -97 -233 -176 -22 -104 -22 -194 2
-315 29 -149 49 -217 81 -275 14 -25 30 -54 36 -65 21 -39 130 -167 260 -304
76 -80 199 -188 311 -273 55 -42 109 -85 120 -95 11 -10 43 -36 70 -58 57 -45
66 -55 58 -69 -3 -5 -2 -6 4 -3 6 4 19 0 29 -9 23 -18 46 -20 -351 26 -197 23
-287 36 -332 45 -32 7 -40 1 -25 -21 8 -11 122 -30 462 -75 46 -6 97 -17 112
-25 30 -15 60 -58 34 -48 -8 3 -17 1 -21 -5 -3 -6 0 -11 8 -11 19 0 31 -91 14
-102 -21 -13 -32 -9 -13 5 16 12 15 15 -21 39 -21 14 -69 36 -108 48 -38 13
-79 27 -90 31 -11 4 -56 19 -100 32 -276 86 -321 100 -329 105 -5 3 -6 0 -2
-6 20 -32 -49 -18 -162 34 -40 19 -75 34 -78 34 -7 0 -208 101 -309 155 -104
56 -179 105 -287 187 -57 45 -91 63 -135 73 -32 8 -64 14 -70 15 -10 0 -13
-54 -12 -242 1 -134 4 -232 6 -218 3 14 14 59 25 100 11 41 24 95 28 120 5 25
18 79 29 120 11 41 21 79 21 84 0 5 7 3 15 -4 15 -13 14 -31 -5 -75 -4 -11
-20 -69 -35 -130 -15 -60 -30 -119 -35 -130 -5 -11 -14 -38 -21 -60 -6 -22
-15 -44 -20 -50 -5 -5 -9 -211 -9 -457 0 -401 2 -448 16 -448 8 0 48 -11 89
-25 198 -66 706 -171 1085 -224 41 -6 127 -18 190 -27 210 -30 206 -30 213 -2
6 24 10 25 154 37 82 7 186 16 233 21 184 20 179 20 194 -9 45 -86 195 -191
324 -227 35 -9 66 -23 69 -31 4 -9 24 -13 67 -13 57 0 96 5 234 31 31 6 93 16
137 24 44 7 105 18 135 25 30 6 120 22 200 36 80 14 170 29 200 35 30 6 93 17
140 25 47 8 105 18 130 23 25 5 110 21 190 36 80 14 163 30 185 35 22 5 74 15
115 24 41 8 95 19 120 24 25 6 101 22 170 36 69 14 141 30 160 36 19 6 94 26
165 45 72 18 207 54 300 79 94 26 231 63 305 83 74 19 162 43 195 53 33 10
114 32 180 49 120 30 198 51 265 70 102 30 213 104 311 207 57 60 84 102 141
214 l33 65 77 27 c43 15 94 35 115 45 21 10 55 18 75 18 36 0 38 1 38 31 0 17
7 37 15 44 13 11 14 8 9 -21 -3 -19 -7 -39 -9 -46 -11 -34 23 -14 126 76 113
97 149 135 245 261 161 210 323 587 329 765 1 44 6 92 10 106 5 22 -2 40 -41
95 -26 38 -62 90 -79 115 -18 26 -37 44 -43 40 -12 -7 -60 -101 -97 -190 -32
-77 -81 -165 -100 -181 -8 -7 -22 -9 -31 -6 -9 4 -23 1 -30 -5 -11 -9 -18 -8
-29 1 -10 9 -15 9 -15 1 0 -6 -7 -11 -15 -11 -8 0 -15 -4 -15 -10 0 -5 -6 -10
-14 -10 -8 0 -16 -4 -18 -8 -1 -5 -36 -28 -76 -51 -41 -24 -71 -45 -68 -48 3
-3 12 -1 19 5 27 23 169 93 176 87 3 -4 -9 -20 -27 -36 -17 -16 -32 -33 -32
-38 0 -5 -36 -46 -79 -91 -63 -65 -81 -90 -86 -121 -4 -25 -3 -39 4 -39 6 0
12 -10 12 -22 1 -17 2 -19 6 -5 2 9 12 17 20 17 9 0 39 15 67 33 91 60 123 77
129 70 8 -8 -34 -53 -51 -53 -16 0 -122 -70 -122 -81 0 -15 9 -11 81 36 38 25
74 45 78 45 5 0 11 4 13 9 2 4 14 12 28 16 29 9 -62 -68 -101 -85 -35 -15 -95
-52 -121 -74 -41 -35 -1 -28 50 8 27 20 54 36 61 36 6 0 11 4 11 9 0 5 14 14
31 21 17 7 50 29 73 47 22 19 49 41 59 49 9 8 24 14 32 14 8 0 15 4 15 9 0 4
17 20 37 33 50 33 107 87 100 94 -3 4 -23 -10 -44 -30 -21 -20 -42 -36 -46
-36 -4 0 -17 -9 -29 -20 -12 -11 -24 -18 -26 -15 -5 5 18 27 77 73 19 15 47
38 63 50 21 18 28 20 28 9 0 -9 -6 -17 -12 -20 -9 -3 -7 -7 4 -12 15 -6 11
-13 -26 -46 -24 -22 -60 -51 -80 -64 -20 -14 -46 -34 -58 -45 -12 -11 -25 -20
-29 -20 -4 0 -20 -12 -37 -27 -56 -52 -73 -64 -82 -58 -6 4 -10 2 -10 -4 0 -5
6 -12 12 -15 7 -3 2 -3 -11 0 -20 5 -23 3 -18 -10 6 -14 3 -16 -13 -11 -15 5
-18 3 -14 -9 7 -19 -12 -22 -20 -3 -3 6 -3 1 1 -13 5 -22 4 -23 -10 -12 -14
12 -20 11 -39 -3 l-23 -17 25 7 c23 7 23 7 7 -9 -11 -11 -25 -15 -39 -11 -18
5 -19 4 -8 -4 12 -9 12 -11 -3 -17 -9 -3 -17 -11 -17 -18 0 -16 -41 -40 -50
-29 -5 4 -10 71 -12 148 l-3 140 -25 -3 c-21 -4 -22 -2 -11 12 21 25 8 29 -34
12 -37 -16 -37 -16 -32 7 3 12 9 40 13 62 4 21 32 89 63 150 120 237 151 339
151 499 -1 142 -49 267 -149 386 -91 109 -262 277 -301 296 -38 18 -39 21 -32
54 4 19 7 92 6 163 -1 70 2 127 5 127 3 -1 24 -24 46 -51 43 -54 338 -352 355
-357 6 -2 10 4 10 13 0 12 6 15 20 10 12 -4 20 -2 20 5 0 7 -9 14 -20 17 -24
6 -27 23 -4 23 9 0 14 6 11 12 -3 9 7 13 29 14 27 0 34 -4 39 -24 5 -22 -6
-47 -30 -64 -6 -5 -5 -12 3 -20 9 -9 12 -9 12 5 0 19 16 23 22 5 3 -8 17 -4
44 12 21 13 41 26 44 29 3 4 21 6 40 6 33 0 35 2 38 38 2 24 8 37 18 37 12 0
12 -4 4 -20 -7 -14 -7 -26 -1 -39 6 -10 7 -21 4 -25 -3 -3 12 -6 34 -6 35 0
42 3 47 25 7 27 1 45 -15 45 -5 0 -9 -13 -9 -30 0 -20 -5 -30 -15 -30 -13 0
-14 4 -5 20 7 14 8 26 1 39 -13 23 2 31 60 31 42 0 51 -14 22 -35 -15 -11 -16
-16 -4 -41 8 -17 16 -24 18 -16 3 7 21 12 43 12 38 0 39 1 43 43 3 34 5 38 11
20 7 -19 16 -21 67 -22 33 0 64 -3 69 -6 6 -3 10 1 10 9 0 17 43 21 88 10 23
-7 61 -64 42 -64 -5 0 -10 -4 -10 -10 0 -5 7 -7 16 -3 10 4 22 0 28 -9 6 -9
20 -17 31 -19 14 -3 20 -13 21 -32 1 -15 -2 -30 -7 -32 -4 -3 5 -19 19 -35
l27 -31 6 33 5 33 12 -40 c6 -22 14 -53 17 -69 3 -15 8 -26 10 -24 3 3 8 345
11 761 l7 757 -4002 0 -4001 0 2 -632z m4608 -1251 c0 -15 33 -35 68 -42 12
-2 27 -7 32 -10 6 -3 10 -3 10 2 0 4 45 8 100 8 55 0 100 -3 100 -7 0 -5 11
-8 24 -8 14 0 28 -4 31 -10 3 -5 16 -10 27 -10 48 0 169 -177 191 -280 3 -14
13 -54 22 -90 22 -85 23 -310 2 -395 -24 -97 -52 -168 -91 -229 -20 -31 -36
-60 -36 -65 0 -5 18 -25 41 -46 22 -20 39 -39 36 -41 -13 -13 -142 -29 -217
-27 -68 2 -88 6 -98 20 -32 44 -75 83 -93 83 -16 0 -18 -3 -9 -19 5 -11 10
-36 10 -55 0 -39 -20 -48 -54 -23 -17 13 -17 15 3 52 12 22 21 45 21 51 0 13
51 34 83 34 25 0 57 28 57 49 -1 9 -13 31 -29 49 -26 31 -27 36 -23 112 2 44
0 99 -6 123 -6 23 -16 80 -23 127 -15 114 -16 115 -34 96 -8 -8 -37 -18 -63
-21 -26 -3 -58 -8 -72 -10 -29 -4 -44 3 -53 25 -9 24 -7 -40 3 -110 5 -36 10
-138 10 -228 1 -140 3 -164 17 -169 24 -9 48 -36 48 -53 0 -9 -15 -18 -41 -24
-37 -8 -42 -13 -52 -51 -11 -43 -46 -85 -97 -116 -33 -21 -91 -26 -79 -8 8 14
-56 9 -181 -15 -49 -9 -101 -18 -115 -20 -14 -2 -65 -10 -115 -19 -49 -9 -124
-21 -165 -27 -41 -7 -136 -24 -210 -40 -74 -15 -162 -33 -195 -40 -33 -6 -67
-13 -76 -16 -22 -6 -69 43 -69 72 0 13 -5 24 -12 24 -6 0 -2 10 9 23 33 36 34
44 13 84 -13 25 -22 67 -25 118 -3 44 -10 103 -15 130 -5 28 -14 84 -20 124
-6 41 -15 80 -20 86 -11 13 -96 4 -158 -16 -28 -9 -37 -8 -53 7 -18 16 -19 16
-19 -2 0 -10 7 -71 15 -134 9 -63 20 -162 25 -219 7 -70 16 -114 29 -135 31
-52 35 -76 13 -76 -15 0 -21 -9 -27 -37 -11 -61 -28 -78 -92 -96 -64 -17 -202
-15 -213 3 -4 6 -40 15 -81 20 -84 10 -162 30 -210 54 -18 9 -43 16 -56 16
-12 0 -23 5 -23 11 0 5 -4 7 -10 4 -5 -3 -10 1 -10 10 0 9 -4 14 -9 11 -14 -9
-127 130 -161 198 -17 33 -28 67 -25 76 11 33 -51 49 -144 38 -22 -3 -26 2
-38 60 -8 35 -12 69 -10 76 3 7 24 16 47 20 54 8 80 26 80 53 0 16 4 21 15 17
8 -4 15 -1 15 5 0 6 -4 11 -10 11 -15 0 -12 33 5 56 8 10 14 26 15 34 0 13 -1
13 -10 0 -15 -23 -12 17 5 60 l13 35 1 -35 c2 -53 18 -18 26 54 8 72 34 138
53 131 7 -3 12 1 11 8 -3 27 2 36 19 31 14 -5 14 -4 2 5 -12 8 -10 15 15 43
57 63 74 78 87 75 7 -2 10 -2 6 0 -5 3 -8 9 -8 14 0 6 5 7 10 4 6 -3 10 -2 10
3 0 5 23 24 52 41 55 35 152 75 142 60 -3 -5 6 -9 20 -9 29 0 35 16 9 23 -10
3 -4 5 13 6 16 0 34 5 40 10 5 5 37 13 72 19 72 10 79 6 111 -57 22 -42 67
-195 106 -356 14 -60 32 -128 40 -150 11 -35 13 -37 16 -15 4 21 12 26 67 37
34 7 79 14 100 16 34 4 37 7 36 33 -3 64 -77 378 -115 482 -17 47 -17 53 -3
59 8 3 22 -1 29 -8 11 -11 38 -13 120 -9 58 3 105 2 105 -2 0 -10 157 0 179
11 26 14 31 14 25 -3 -4 -11 8 -15 54 -18 52 -3 58 -1 54 15 -3 13 2 17 27 17
17 0 31 -4 31 -8 0 -5 12 -14 26 -20 19 -9 30 -9 47 0 12 7 27 11 34 10 6 -1
14 2 18 8 8 13 58 13 71 0 7 -7 17 -3 32 10 16 15 36 20 79 21 50 1 129 9 198
22 11 2 34 11 52 20 37 19 47 21 38 7 -9 -14 18 -12 47 3 15 7 23 18 20 27 -5
13 -3 13 14 0 30 -24 41 -39 88 -130 44 -86 81 -184 112 -299 15 -54 19 -61
27 -44 7 16 28 25 90 38 77 17 81 17 94 -1 18 -25 17 -6 -6 86 -34 135 -94
295 -133 352 -20 29 -23 48 -8 48 6 0 10 -6 10 -13z m2215 -867 c-7 -36 -17
-83 -23 -105 -6 -22 -12 -57 -14 -78 -1 -21 -6 -41 -10 -43 -11 -7 -10 -144 1
-144 5 0 11 -11 14 -25 4 -25 4 -25 -19 -10 -13 8 -24 11 -24 6 0 -5 6 -11 13
-14 9 -3 9 -7 -1 -19 -14 -18 -35 -86 -52 -173 -12 -58 -28 -101 -35 -93 -2 2
0 21 6 43 9 41 15 78 44 265 9 58 27 152 40 210 14 58 30 128 36 155 10 46 29
98 35 92 1 -1 -4 -31 -11 -67z m635 -82 c0 -7 -7 -22 -15 -32 -8 -11 -15 -33
-15 -50 l0 -30 -16 22 -16 23 -64 -69 c-46 -51 -70 -69 -89 -69 -14 0 -33 -11
-45 -24 -23 -28 -26 -47 -5 -29 10 8 15 9 15 2 0 -6 6 -9 14 -6 16 6 28 -8 18
-21 -18 -25 -103 -85 -120 -85 -11 0 -25 -7 -32 -15 -7 -8 -16 -15 -20 -15
-15 0 -72 -59 -66 -68 7 -11 -39 -63 -48 -55 -3 4 -6 40 -6 80 0 83 13 121 35
103 9 -8 23 -5 51 12 40 23 167 116 194 141 8 8 35 30 60 49 25 19 58 46 74
61 16 15 33 27 37 27 5 0 9 4 9 10 0 12 32 50 42 50 5 0 8 -6 8 -12z m-2689
-368 c10 0 19 -4 19 -10 0 -5 -5 -10 -10 -10 -6 0 -20 -9 -32 -20 -22 -20 -64
-28 -53 -10 3 6 -4 10 -17 9 -13 0 -17 -3 -10 -6 8 -3 5 -10 -10 -23 -23 -18
-22 -18 27 -9 28 6 66 13 85 17 19 5 46 5 60 2 22 -5 23 -7 7 -13 -11 -4 -23
-5 -28 -1 -5 3 -16 -2 -25 -10 -8 -9 -27 -16 -42 -17 -26 0 -25 -1 8 -14 l35
-13 -30 -1 c-17 -1 -35 3 -40 8 -11 11 -117 -6 -360 -57 -55 -12 -188 -37
-295 -57 -107 -21 -276 -52 -375 -71 -99 -19 -205 -39 -235 -44 -30 -6 -73
-15 -95 -20 -22 -5 -83 -16 -135 -25 -52 -9 -113 -20 -135 -25 -22 -5 -80 -16
-130 -25 -49 -9 -110 -20 -135 -25 -25 -5 -63 -11 -85 -15 -22 -3 -60 -10 -85
-15 -73 -16 -240 -49 -305 -59 -33 -6 -91 -17 -130 -26 -111 -24 -111 -24
-124 46 -7 34 -11 62 -9 63 2 2 37 8 78 14 217 33 275 47 274 65 -1 9 2 17 6
17 5 0 8 12 7 26 -1 15 3 29 10 31 16 6 53 -36 53 -60 0 -15 5 -18 23 -13 12
3 37 6 55 6 29 0 32 2 22 19 -14 26 -13 31 6 31 13 0 14 3 4 15 -6 8 -9 19 -5
25 11 18 32 11 50 -17 15 -22 16 -30 5 -46 -11 -18 -10 -19 7 -12 10 4 52 14
93 21 225 42 296 58 302 67 3 6 17 11 30 12 78 8 148 19 148 24 0 4 26 7 58 7
31 0 109 10 172 22 63 12 165 31 225 42 61 11 135 24 165 29 30 5 96 17 145
26 50 9 155 28 235 42 80 14 168 29 195 35 48 9 127 21 228 34 26 4 47 11 47
16 0 6 7 7 16 4 9 -3 24 -6 35 -6z m594 -184 c49 -6 58 -12 144 -115 l83 -98
62 15 c64 16 105 39 106 59 1 35 32 14 135 -88 63 -62 120 -116 127 -120 17
-11 5 -20 -39 -30 -60 -12 -163 -38 -223 -56 -93 -27 -112 -32 -215 -57 -55
-13 -172 -42 -260 -64 -88 -23 -207 -52 -265 -66 -58 -13 -127 -30 -155 -37
-27 -6 -64 -13 -81 -15 l-31 -4 8 42 c14 74 12 86 -14 81 -31 -6 -52 41 -43
93 7 33 6 35 -13 29 -24 -7 -51 14 -51 39 0 9 -4 16 -10 16 -5 0 -18 28 -29
63 -16 53 -17 69 -8 100 9 29 16 35 32 31 23 -6 81 18 143 60 41 28 62 34 192
55 30 5 82 16 115 25 33 8 74 15 90 16 17 0 46 9 65 19 23 13 47 18 70 15 19
-3 49 -7 65 -8z m-4615 -261 c69 -8 183 -19 254 -25 71 -6 133 -13 137 -16 4
-2 76 -7 160 -10 85 -4 155 -9 157 -13 1 -3 54 -6 117 -6 102 0 116 2 129 20
34 46 48 -33 26 -145 -6 -36 -14 -79 -17 -97 -5 -30 -7 -32 -37 -26 -17 3 -36
12 -43 21 -10 12 -16 12 -26 3 -11 -9 -17 -7 -28 6 -12 15 -12 16 3 10 19 -7
35 10 22 23 -5 5 -54 11 -108 14 -61 3 -102 9 -106 17 -5 7 -18 9 -34 5 -15
-4 -34 -1 -46 6 -16 11 -23 10 -37 -5 -16 -16 -15 -17 30 -17 26 0 64 -7 83
-15 20 -8 46 -12 59 -9 13 3 26 0 30 -7 6 -9 -7 -11 -56 -6 -35 3 -118 11
-184 17 -66 5 -149 14 -185 19 -36 5 -105 15 -155 21 -49 6 -166 22 -260 36
-93 14 -187 27 -207 30 -24 4 -38 11 -38 20 0 16 45 19 55 4 3 -5 17 -10 30
-10 13 0 26 -4 29 -8 8 -13 136 -14 136 -2 0 7 -12 9 -34 5 -20 -4 -36 -2 -40
4 -4 6 -18 8 -32 5 -15 -4 -24 -2 -24 6 0 7 -8 9 -21 5 -30 -10 -89 49 -89 87
0 15 5 28 10 28 17 0 23 -29 10 -44 -17 -22 18 -36 89 -36 34 0 61 -4 61 -10
0 -5 23 -10 50 -10 68 0 63 16 -7 24 -141 17 -168 22 -168 31 0 20 42 63 66
68 28 6 70 3 239 -18z m3727 -22 c40 -98 50 -191 28 -268 -16 -54 -63 -150
-70 -143 -7 7 8 58 16 58 5 0 9 11 9 24 0 14 4 27 9 30 17 11 20 66 6 119 -8
30 -16 70 -18 89 -3 18 -8 41 -12 51 -8 19 1 67 13 67 4 0 12 -12 19 -27z
m-1948 -433 c42 -57 164 -168 199 -181 10 -4 24 -14 31 -23 7 -9 17 -16 21
-16 4 0 29 -10 56 -22 43 -18 46 -22 29 -30 -18 -7 -17 -8 3 -4 13 3 48 0 77
-7 l54 -11 -35 -12 c-20 -7 -61 -15 -92 -18 -53 -6 -62 -4 -138 36 -45 24 -99
58 -119 76 -21 17 -42 32 -47 32 -5 0 -8 8 -6 18 1 10 -13 38 -33 62 -34 42
-59 82 -59 94 0 3 28 -24 63 -59 34 -36 66 -65 72 -65 5 0 -7 17 -27 38 -44
46 -108 130 -108 143 0 21 18 6 59 -51z m-2034 5 c39 -6 210 -35 235 -40 37
-8 242 -34 350 -45 147 -15 175 -28 63 -29 -50 -1 -95 -5 -98 -11 -3 -6 8 -9
27 -8 40 2 131 -24 106 -29 -10 -3 -18 -13 -18 -24 0 -11 4 -18 9 -15 5 3 31
3 57 -1 l49 -7 -44 -8 c-24 -4 -46 -10 -49 -13 -12 -12 19 -27 65 -31 63 -5
160 -21 198 -33 l30 -9 -30 -1 c-49 -2 -227 19 -260 31 -31 10 -159 35 -324
62 -105 17 -120 25 -100 53 15 19 79 30 79 13 0 -5 5 -10 10 -10 6 0 10 7 10
15 0 11 -11 15 -40 15 -33 0 -42 4 -52 25 -12 27 -31 35 -22 10 7 -18 -17 -20
-33 -4 -6 6 -17 9 -24 7 -8 -3 4 -15 27 -29 39 -23 48 -49 18 -49 -8 0 -14 -4
-14 -10 0 -15 -26 -12 -39 4 -9 11 -9 16 0 21 8 6 6 11 -6 18 -28 15 -85 26
-90 17 -3 -5 -22 -6 -42 -3 -28 5 -35 3 -31 -8 2 -7 13 -16 24 -19 28 -7 60
-28 54 -34 -3 -3 -27 3 -53 12 -37 13 -47 22 -47 39 0 13 -5 23 -11 23 -7 0
-8 -11 -4 -29 5 -26 4 -29 -13 -24 -22 5 -36 60 -21 79 5 7 7 31 3 55 -7 39
-6 42 12 35 10 -4 28 -9 39 -11z m3034 -9 c60 -28 51 -68 -16 -70 -36 -1 -38
1 -35 27 3 21 -1 27 -15 27 -19 0 -65 -28 -50 -31 4 -1 12 -3 17 -4 6 -1 16
-3 23 -4 6 -1 2 -6 -11 -12 -13 -5 -35 -6 -48 -3 l-25 6 25 -37 c15 -21 33
-43 43 -50 11 -8 12 -14 5 -19 -6 -4 -20 2 -32 14 -11 11 -26 20 -34 20 -9 0
-12 8 -8 25 2 15 0 25 -7 25 -17 0 -12 42 7 66 34 41 100 49 161 20z m645
-203 c6 -6 -51 -26 -104 -37 -8 -2 -22 -6 -31 -10 -9 -4 -36 -8 -60 -10 -58
-4 -159 -25 -183 -38 -11 -6 -45 -12 -75 -14 -31 -2 -58 -3 -61 -3 -14 -2 41
-30 66 -34 16 -2 5 -3 -25 -1 -35 1 -57 8 -63 17 -4 9 -16 13 -27 10 -10 -3
-22 0 -25 6 -4 6 -4 11 1 12 53 3 87 10 92 17 3 5 31 12 61 15 109 11 187 25
208 36 11 6 36 11 54 11 18 0 53 7 78 14 50 16 83 19 94 9z m776 -13 c-8 -5
-24 -10 -34 -10 -21 0 -42 -6 -156 -46 -41 -14 -150 -39 -243 -55 -92 -15
-195 -35 -230 -43 -34 -8 -96 -20 -137 -27 -41 -6 -93 -15 -115 -19 -214 -42
-414 -75 -520 -85 -49 -4 -49 -4 -10 5 42 9 437 83 540 101 107 18 219 40 250
50 17 5 77 18 135 28 129 24 308 63 415 90 91 22 129 26 105 11z"/>
<path d="M4038 3214 c-3 -3 -70 -12 -149 -19 -78 -8 -150 -17 -158 -20 -9 -2
-38 -5 -66 -6 -27 -1 -55 -6 -60 -10 -6 -4 -33 -9 -60 -11 l-50 -3 1 -44 c1
-65 24 -80 111 -74 80 6 108 22 43 24 -25 1 -51 0 -59 -1 -8 -1 -18 4 -22 12
-12 19 -11 66 2 73 10 7 84 16 229 30 30 3 75 10 100 15 25 5 67 11 93 12 55
2 67 -8 67 -60 0 -31 2 -33 33 -30 26 2 33 8 35 28 4 37 -32 90 -61 90 -13 0
-26 -2 -29 -6z"/>
<path d="M4030 5449 c-74 -4 -214 -13 -310 -20 -288 -18 -553 -45 -790 -79
-312 -46 -304 -45 -525 -85 -77 -14 -158 -30 -180 -35 -22 -5 -71 -16 -110
-25 -271 -60 -526 -150 -690 -244 -33 -18 -69 -39 -80 -45 -11 -6 -75 -49
-143 -95 -92 -64 -122 -89 -121 -105 0 -24 17 -117 49 -271 5 -22 15 -78 24
-125 9 -47 20 -103 25 -125 5 -22 19 -92 31 -155 12 -63 26 -133 32 -155 6
-22 12 -45 13 -50 5 -21 285 -39 595 -40 323 0 570 15 915 55 154 18 271 30
380 40 110 10 195 20 355 40 47 6 148 17 225 25 137 15 202 22 375 44 47 6
144 18 215 26 72 8 162 19 200 25 39 5 133 17 210 26 77 9 165 20 195 24 132
18 360 50 415 59 33 6 105 17 160 26 228 36 403 78 500 120 17 8 52 23 78 34
66 28 250 137 269 159 10 10 20 55 27 116 l11 98 -65 102 c-61 97 -80 135 -53
108 7 -7 19 -12 27 -12 19 0 -20 43 -69 76 -38 26 -179 128 -195 141 -68 55
-264 161 -370 201 -107 39 -135 48 -235 67 -161 31 -185 34 -300 40 -63 4
-128 9 -145 12 -58 9 -811 11 -945 2z"/>
<path d="M925 4612 c-16 -15 -66 -56 -109 -92 -43 -36 -119 -101 -168 -145
-72 -64 -88 -84 -83 -100 13 -42 26 -222 20 -281 -5 -44 -3 -64 6 -69 6 -5 41
-12 78 -16 36 -4 104 -13 151 -18 47 -6 134 -17 195 -25 60 -9 111 -13 114
-11 2 3 -1 22 -7 42 -15 52 -58 260 -88 428 -8 50 -19 110 -24 135 -4 25 -13
71 -18 103 -17 88 -21 91 -67 49z"/>
<path d="M7978 1664 c-5 -4 -8 -41 -8 -83 -1 -42 -7 -98 -15 -126 l-14 -50 -1
75 c-1 65 -3 72 -13 50 -6 -14 -16 -28 -21 -31 -5 -4 -6 -14 -3 -21 3 -9 -10
-32 -29 -54 -18 -21 -38 -44 -43 -50 -5 -7 -13 -29 -17 -50 -9 -52 -22 -66
-53 -59 -14 3 -33 1 -41 -5 -10 -6 -11 -10 -2 -10 22 0 13 -19 -18 -35 -17 -9
-30 -24 -30 -34 0 -24 -26 -34 -51 -21 -16 9 -19 7 -19 -15 0 -14 -4 -25 -10
-25 -5 0 -10 -7 -10 -15 0 -10 -10 -15 -30 -15 -23 0 -30 -4 -30 -20 0 -12 -7
-20 -17 -21 -62 -4 -80 -6 -95 -13 -10 -4 -15 -12 -12 -18 3 -5 14 -2 25 8 10
9 19 12 19 6 0 -6 -8 -15 -17 -20 -15 -9 -14 -11 5 -23 12 -8 22 -17 22 -21 0
-4 -21 9 -47 29 -27 20 -47 40 -46 44 2 5 -3 6 -10 4 -6 -3 -92 54 -189 125
-98 72 -180 130 -183 130 -4 0 -143 -100 -311 -222 -393 -288 -394 -289 -405
-282 -5 3 -8 1 -7 -5 5 -15 -62 -60 -80 -54 -14 4 -14 3 -3 -5 20 -14 4 -33
-23 -26 -15 3 -30 -2 -47 -18 -14 -13 -47 -29 -74 -36 -48 -12 -88 -43 -65
-50 5 -2 10 -11 10 -19 0 -13 9 -15 55 -9 57 6 71 -4 43 -32 -8 -8 -9 -12 -1
-12 6 0 20 -3 30 -6 16 -6 16 -5 -2 9 -19 16 -19 16 16 17 41 0 129 28 129 41
0 4 7 5 17 2 11 -4 14 -3 9 5 -4 7 -2 20 4 29 11 17 11 17 6 1 -4 -14 0 -18
17 -18 12 0 28 -4 36 -9 11 -7 5 -13 -24 -25 -20 -9 -40 -16 -42 -16 -3 0 -34
-13 -70 -30 -35 -16 -68 -30 -72 -30 -4 0 -26 -9 -49 -20 -22 -11 -45 -20 -49
-20 -4 0 -62 -21 -128 -46 -66 -25 -131 -48 -145 -51 -14 -3 -29 -9 -35 -13
-5 -4 -48 -19 -95 -35 -47 -15 -114 -38 -150 -51 -36 -13 -72 -24 -79 -24 -8
0 -39 -9 -70 -19 -31 -10 -85 -27 -121 -36 -36 -10 -84 -24 -108 -31 -23 -8
-49 -14 -57 -14 -9 0 -23 -4 -33 -9 -9 -6 -44 -17 -77 -25 -53 -13 -97 -25
-250 -68 -138 -38 -195 -37 1600 -35 l1720 2 2 410 c3 492 -9 1260 -19 1249z
m-613 -675 c207 -149 373 -275 368 -279 -10 -9 -733 -533 -750 -543 -18 -11
-777 543 -763 557 32 33 747 544 757 541 6 -2 181 -126 388 -276z"/>
<path d="M6665 999 c-165 -116 -324 -227 -352 -246 l-53 -36 53 -36 c28 -21
113 -80 187 -132 337 -238 468 -329 474 -329 3 0 164 111 357 247 340 239 350
248 331 264 -49 39 -681 479 -689 479 -5 0 -143 -95 -308 -211z m65 -134 c24
-13 60 -59 60 -78 0 -3 -14 -7 -32 -9 -25 -4 -36 0 -51 18 -24 31 -78 33 -107
4 -29 -29 -28 -127 1 -164 33 -42 119 -27 119 22 0 11 8 13 32 8 17 -3 34 -9
37 -11 10 -11 -34 -77 -60 -91 -61 -31 -154 -10 -194 44 -16 22 -20 43 -20
107 0 86 13 116 65 149 32 20 112 20 150 1z m244 -92 l66 -108 0 108 0 107 30
0 30 0 0 -165 0 -165 -33 0 c-30 0 -36 6 -92 100 -33 55 -62 100 -65 100 -3 0
-5 -44 -5 -97 l0 -98 -30 0 -30 0 -3 163 -2 162 33 0 c32 0 37 -5 101 -107z
m426 92 c35 -18 68 -73 48 -79 -47 -15 -58 -13 -73 10 -12 19 -24 24 -60 24
-60 0 -85 -31 -85 -107 0 -44 5 -58 25 -78 40 -41 135 -30 135 15 0 16 -7 20
-35 20 -32 0 -35 2 -35 30 l0 30 70 0 70 0 0 -69 0 -69 -43 -21 c-57 -28 -140
-28 -185 -1 -50 31 -72 75 -72 145 0 70 22 114 72 145 40 24 126 27 168 5z"/>
<path d="M1 553 l-1 -553 288 1 c276 0 286 1 252 17 -19 9 -37 20 -40 23 -3 3
-12 10 -21 15 -29 16 -82 65 -77 70 3 3 25 -10 49 -29 58 -43 94 -63 152 -82
42 -13 265 -15 1942 -15 2007 0 1950 -1 2032 44 59 32 79 39 116 37 41 -2 49
12 16 29 -20 11 -19 13 17 32 20 11 47 18 60 15 14 -2 21 0 18 8 -3 7 7 15 25
18 17 4 32 14 35 25 5 14 20 21 56 26 61 8 66 26 8 26 -62 0 -210 -20 -231
-31 -10 -5 -54 -16 -98 -25 -62 -12 -84 -12 -95 -3 -20 17 -290 -6 -311 -26
-9 -9 -34 -15 -64 -15 -27 0 -49 -4 -49 -10 0 -6 -32 -10 -75 -10 -43 0 -75 4
-75 10 0 13 -57 13 -65 0 -3 -6 2 -10 12 -11 14 0 14 -2 -5 -9 -28 -12 -90 -1
-70 11 9 6 4 9 -16 9 -24 0 -27 -2 -16 -15 10 -12 8 -16 -14 -24 -14 -6 -38
-10 -53 -9 -15 0 -120 -3 -233 -7 -113 -4 -240 -9 -283 -10 -83 -3 -101 -9
-77 -26 11 -8 4 -9 -25 -4 -22 4 -96 9 -165 11 -69 2 -141 6 -160 9 -36 7
-428 17 -585 15 -49 0 -114 4 -143 9 -36 7 -60 8 -72 1 -31 -17 -84 -19 -100
-5 -19 17 -148 37 -263 41 -64 2 -92 7 -100 18 -8 9 -36 16 -77 18 -36 3 -75
10 -86 16 -12 6 -37 13 -56 16 -19 2 -56 11 -82 20 -30 10 -81 16 -147 16 -93
0 -102 2 -125 25 -19 20 -38 26 -80 29 -31 2 -58 7 -61 10 -4 3 -17 6 -30 6
-12 0 -23 5 -23 11 0 5 -5 7 -10 4 -6 -3 -22 3 -36 14 -15 12 -37 21 -49 21
-13 0 -36 7 -51 15 -16 8 -36 15 -45 15 -9 0 -19 8 -21 18 -3 10 -23 22 -52
31 -26 7 -53 22 -59 32 -7 11 -15 19 -19 19 -5 0 -17 9 -28 20 -11 11 -29 20
-39 20 -11 0 -22 9 -26 19 -3 10 -17 22 -30 25 -28 7 -72 71 -82 117 -3 16
-14 34 -25 40 -11 6 -17 17 -14 24 2 8 -7 31 -23 52 -27 39 -77 157 -104 248
-14 46 -15 2 -16 -502z"/>
</g>
</svg>
