<svg width="85" height="73" xmlns="http://www.w3.org/2000/svg" xmlns:xlink="http://www.w3.org/1999/xlink" xml:space="preserve" overflow="hidden"><defs><clipPath id="clip0"><rect x="594" y="258" width="85" height="73"/></clipPath></defs><g clip-path="url(#clip0)" transform="translate(-594 -258)"><path d="M40.8161 71.584C40.0712 71.0064 37.5782 69.1062 35.2828 67.3732 28.7917 62.4631 27.758 61.6726 27.1955 61.2318 26.9067 61.0037 26.2682 60.5173 25.7666 60.1373 25.2649 59.7724 23.7904 58.6627 22.4983 57.6746 21.2061 56.7017 19.0475 55.0751 17.7098 54.0566 16.372 53.0533 15.2167 52.1717 15.1255 52.1109 14.6239 51.7004 12.6477 50.1955 12.3588 50.013 11.9484 49.7242 7.25113 46.167 7.14472 46.0606 7.09912 46.015 6.38464 45.4678 5.54856 44.8445 4.71247 44.2213 3.998 43.674 3.9524 43.6284 3.90679 43.5828 3.37474 43.1723 2.76668 42.7315 1.86979 42.0626 1.70257 41.8802 1.85459 41.6978 1.9458 41.5762 2.69067 40.9833 3.48115 40.3753 6.9319 37.7758 9.9722 35.4804 10.185 35.3132 10.4587 35.1003 12.1004 33.8386 15.2015 31.4976 16.4937 30.5247 17.725 29.567 17.9378 29.3846 18.1506 29.1869 18.3634 29.0349 18.4091 29.0349 18.4699 29.0349 18.8803 28.7461 19.3363 28.3813 19.7772 28.0164 21.1301 26.9675 22.3463 26.0554 24.5505 24.3833 26.5115 22.8935 30.7831 19.6404 32.0448 18.6827 33.9602 17.2233 35.0395 16.4025 36.134 15.5816 38.1862 14.0158 39.6 12.9365 42.0018 11.0971 42.5795 10.7171 42.3363 11.0971 42.2907 11.1731 42.3363 11.2187 42.4427 11.1731 42.5491 11.1275 43.8108 11.9788 45.2398 13.0429 46.6687 14.107 48.7209 15.6272 49.785 16.4177 50.8643 17.2081 52.8557 18.6827 54.2087 19.686 59.438 23.5624 61.855 25.3562 63.5424 26.5875 64.5001 27.302 65.321 27.91 65.3666 27.9556 65.4122 28.0164 65.6402 28.1684 65.8682 28.3205 66.0963 28.4725 66.2483 28.6549 66.2027 28.7309 66.1571 28.8221 66.2179 28.8373 66.3395 28.7917 66.4763 28.7461 66.5827 28.7765 66.5827 28.8677 66.5827 28.9589 66.6891 29.0349 66.8107 29.0349 66.9171 29.0349 67.0844 29.1261 67.1452 29.2173 67.206 29.3238 67.6164 29.643 68.0269 29.9318 68.4525 30.2206 70.3983 31.6496 72.3593 33.1089 77.5126 36.9549 78.0447 37.335 80.7201 39.296 81.6322 39.9648 82.3619 40.5881 82.3163 40.6945 82.2859 40.8161 82.3467 40.8465 82.4987 40.7857 82.6811 40.7097 82.7115 40.7401 82.6203 40.8921 82.5443 41.0289 82.5595 41.0593 82.6659 40.9833 82.8635 40.8617 83.6084 41.3026 83.6084 41.5458 83.6084 41.6218 83.5172 41.7738 83.3956 41.865 82.9244 42.2451 73.4994 49.3746 72.8153 49.861 72.4201 50.1499 70.5959 51.518 68.7869 52.9013 66.9779 54.2847 65.3818 55.4856 65.245 55.5616 65.093 55.6528 64.9561 55.744 64.9105 55.7896 64.8649 55.8352 64.5305 56.1089 64.1505 56.3977 63.7704 56.6865 63.436 56.9601 63.3904 57.0057 63.3448 57.0513 62.9799 57.3402 62.5543 57.629 62.1439 57.9026 61.7638 58.1763 61.7182 58.2219 61.5662 58.3739 53.9654 64.1505 53.2966 64.6065 53.1294 64.7281 52.1869 65.4274 51.2292 66.1571 50.2715 66.8867 49.3138 67.6164 49.1009 67.7836 48.8881 67.9356 48.0672 68.5437 47.2768 69.1366 46.4863 69.7294 45.7718 70.2767 45.6806 70.3375 44.8901 71.0368 42.5643 72.6633 42.3971 72.6481 42.2755 72.6481 41.5762 72.1617 40.8161 71.584ZM46.3799 69.015C48.5081 67.4188 50.3475 66.0355 50.4691 65.929 50.6059 65.8378 52.2173 64.6217 54.0414 63.2384 55.8808 61.855 57.4922 60.6541 57.6138 60.5477 57.7354 60.4413 58.1915 60.1069 58.6171 59.7876 60.2589 58.5715 61.7942 57.401 61.8702 57.3098 61.9158 57.2642 62.2959 56.9905 62.7063 56.7017 63.132 56.4129 63.4968 56.1545 63.5424 56.1089 63.6792 55.9568 64.8953 55.0143 69.9422 51.2292 72.6633 49.177 76.6461 46.1823 78.8047 44.5557L82.7115 41.6066 82.2859 41.257C82.0579 41.0593 81.313 40.5121 80.6441 40.0256 79.9753 39.5392 78.3183 38.3231 76.9654 37.3198 75.6124 36.3165 74.0923 35.2067 73.621 34.8571 73.1346 34.5075 72.6025 34.1122 72.4353 33.9906 71.888 33.565 70.2159 32.3033 67.7228 30.4791 64.2265 27.8948 62.4175 26.5571 62.2503 26.4203 62.1743 26.3443 61.5206 25.873 60.8061 25.3714 60.0917 24.8545 59.4532 24.3681 59.362 24.2616 59.286 24.1704 59.0123 23.9576 58.7539 23.8056 58.5107 23.6384 57.1426 22.6503 55.7136 21.5862 52.7949 19.4124 49.4354 16.9193 47.7328 15.6728 47.1095 15.2167 45.6502 14.1374 44.5101 13.2709 43.37 12.4044 42.3819 11.7052 42.3363 11.7052 42.2755 11.7052 41.8346 12.0092 41.3482 12.3892 40.8617 12.7693 40.3753 13.0733 40.2689 13.0733 40.1624 13.0733 40.132 13.1189 40.1776 13.1797 40.2385 13.2253 40.0408 13.4382 39.752 13.6358 39.1743 14.031 38.9919 14.0766 39.1591 13.803 39.22 13.6814 39.2048 13.651 39.1287 13.727 39.0527 13.803 38.9919 13.9398 38.9919 14.031 38.9919 14.259 35.526 16.8585 35.3588 16.7673 35.2828 16.7065 35.2676 16.7521 35.3284 16.8433 35.3892 16.9345 35.2676 17.0865 35.0851 17.1929 34.8875 17.2841 34.2947 17.725 33.7474 18.1658 33.2001 18.6067 31.0871 20.218 29.0349 21.7534 26.9827 23.2887 25.2801 24.5809 25.2345 24.6417 25.1585 24.7329 23.1215 26.2834 18.6979 29.6126 17.4058 30.5855 16.3112 31.4216 16.2656 31.4672 16.22 31.5128 15.8096 31.8168 15.3535 32.1512 14.8975 32.4705 14.3046 32.9113 14.0462 33.1241 13.2861 33.7626 13.0733 33.9146 11.4924 35.1155 10.6715 35.7388 9.16652 36.8941 8.14802 37.6542 7.12952 38.4295 5.50295 39.6608 4.53006 40.3905 3.54196 41.1353 2.73628 41.7738 2.73628 41.8346 2.73628 41.9258 3.52676 42.5339 4.9405 43.5524 5.29013 43.8108 5.77658 44.1757 6.03501 44.3885 6.27823 44.6013 6.68867 44.9205 6.9319 45.1029 7.70718 45.6654 8.86249 46.5471 9.80499 47.2768 10.3066 47.6568 12.6325 49.4202 14.9735 51.1836 17.3145 52.9469 19.3668 54.5279 19.534 54.6799 19.7012 54.8319 20.0812 55.1208 20.3853 55.3336 20.6893 55.5464 21.1301 55.8656 21.3734 56.048 21.6166 56.2457 22.3006 56.7473 22.8783 57.1882 23.4712 57.6138 23.9728 58.009 24.0184 58.0699 24.064 58.1155 24.7329 58.6171 25.493 59.1948 26.2834 59.7724 26.8611 60.3045 26.8003 60.3957 26.7395 60.4869 26.7851 60.5021 26.8915 60.4261 27.0131 60.3653 27.3324 60.5173 27.7124 60.8213 28.062 61.1102 29.9318 62.5391 31.8624 63.9984 37.7606 68.4525 41.2418 71.1128 41.7282 71.508 41.9866 71.7208 42.2603 71.888 42.3515 71.9032 42.4579 71.9032 44.2669 70.5959 46.3799 69.015Z" stroke="#000000" stroke-width="0.134883" fill="#70AD47" transform="matrix(1.00028 0 0 -1 594 330.984)"/><path d="M41.789 70.2615C40.4665 69.2734 39.5544 68.5741 39.3568 68.3765 39.2352 68.2701 39.0223 68.1181 38.8855 68.0269 38.5967 67.8444 35.678 65.6402 35.5716 65.5186 35.526 65.473 35.2523 65.2602 34.9635 65.0626 34.6747 64.8649 34.3555 64.5913 34.2491 64.4545 34.1578 64.3329 34.021 64.2265 33.945 64.2265 33.8386 64.2265 29.3694 60.8669 29.1869 60.6541 29.1413 60.5933 28.7917 60.3349 28.3965 60.0765 28.0164 59.8028 27.606 59.4988 27.4844 59.4076 27.378 59.3012 27.0131 59.0275 26.6635 58.7843 26.3291 58.5563 25.9186 58.2523 25.7514 58.1003 25.5994 57.9634 25.1585 57.6442 24.7937 57.3858 24.4289 57.1426 23.9272 56.7473 23.684 56.5193 23.4408 56.2913 23.1975 56.0937 23.1367 56.0937 23.0151 56.0632 20.3396 54.0414 19.7924 53.555 19.5796 53.3574 19.3668 53.2054 19.3211 53.2054 19.2755 53.2054 19.0171 53.0077 18.7435 52.7797 18.4851 52.5517 17.8314 52.0652 17.3145 51.6852 16.7977 51.3204 16.296 50.9403 16.2048 50.8491 16.0984 50.7731 15.7944 50.5299 15.5056 50.3171 15.2167 50.1194 14.9127 49.8914 14.8215 49.8306 14.7455 49.7546 14.1222 49.2834 13.4382 48.7513 12.7693 48.2345 12.0092 47.6568 11.766 47.4592 11.5228 47.2768 10.5347 46.5319 9.57696 45.8174 8.61927 45.1181 7.73758 44.4189 7.64637 44.2821 7.53996 44.1452 7.44875 44.0844 7.44875 44.1604 7.44875 44.2365 7.26633 44.1148 7.03831 43.902 6.79508 43.6892 6.29343 43.3092 5.89819 43.0355 5.48775 42.7619 5.16852 42.4883 5.16852 42.4123 5.16852 42.3211 5.07731 42.2603 4.9557 42.2603 4.84929 42.2603 4.66687 42.169 4.57566 42.0474 4.34764 41.7738 4.21082 41.8954 7.14472 39.676 8.19363 38.8855 9.83539 37.6542 10.7931 36.9093 11.7508 36.1796 13.2253 35.0699 14.0614 34.4315 14.8975 33.793 15.7944 33.1241 16.0376 32.9265 16.296 32.7441 17.3297 31.9384 18.3634 31.1479 19.3972 30.3575 20.3549 29.6582 20.5069 29.567 20.6437 29.491 20.9629 29.2325 21.2061 28.9893 21.4646 28.7613 21.7078 28.5789 21.7686 28.5789 21.8142 28.5789 21.9662 28.4877 22.0726 28.3813 22.4527 28.0164 24.4745 26.4355 24.4745 26.5115 24.4745 26.5571 24.6569 26.4051 24.8849 26.1922 25.1281 25.9794 25.5538 25.645 25.8578 25.4626 26.1618 25.2649 26.4963 25.0217 26.6179 24.9001 27.0587 24.4897 28.0468 23.7904 28.1684 23.836 28.2292 23.8512 28.2748 23.8056 28.2748 23.7296 28.2748 23.6536 28.7005 23.2735 29.2325 22.8935 30.3575 22.0574 30.5399 21.9206 31.6192 21.0845 32.0752 20.7197 33.1089 19.9292 33.8994 19.3363 34.6899 18.7435 35.4196 18.1962 35.4956 18.1202 35.5868 18.0594 36.134 17.649 36.7117 17.2081 37.3046 16.7825 37.867 16.3568 37.9734 16.2656 38.3687 15.9312 40.1472 14.5935 40.208 14.5935 40.2385 14.5935 40.4209 14.4567 40.6185 14.2894 40.8009 14.1222 41.257 13.7574 41.6218 13.4686L42.2755 12.9365 42.8835 13.3317C43.2028 13.5446 43.4764 13.7878 43.4764 13.8486 43.4764 13.9246 43.5524 13.9854 43.6436 13.9854 43.7348 13.9854 44.0236 14.1526 44.2973 14.3654 44.9053 14.8671 44.9053 14.8519 46.1062 15.7032 46.6687 16.0984 47.1247 16.5089 47.1247 16.6001 47.1247 16.6913 47.1704 16.7217 47.216 16.6761 47.2768 16.6153 47.672 16.8433 48.0976 17.1777 48.5233 17.497 49.1161 17.953 49.405 18.1658 51.822 19.9596 52.8405 20.7197 52.9013 20.8109 52.9469 20.8717 53.2966 21.1149 53.6918 21.3582 54.1022 21.6166 54.4215 21.8598 54.4215 21.9206 54.4215 21.9814 54.6191 22.1334 54.8623 22.2702 55.1056 22.3919 55.3944 22.5743 55.516 22.6807 55.6224 22.7871 55.9112 22.9999 56.1393 23.1519 56.3825 23.3039 56.6865 23.5168 56.8233 23.6384 56.9601 23.7448 57.2946 24.0184 57.5378 24.216 57.7962 24.4289 58.4803 24.9153 59.0579 25.3105 59.6508 25.7058 60.2437 26.1618 60.4109 26.3443 60.5629 26.5267 60.6997 26.6483 60.7149 26.6027 60.7301 26.5115 64.3633 29.2021 64.4241 29.3694 64.4545 29.4302 64.5457 29.491 64.6217 29.491 64.7129 29.491 64.8497 29.567 64.9561 29.643 65.0626 29.7342 65.6858 30.2054 66.3547 30.7071 67.0236 31.2087 67.6468 31.6648 67.7228 31.7256 67.814 31.8016 68.1181 32.0296 68.4069 32.2272 68.6957 32.4249 70.4135 33.6866 72.2073 35.0243 74.0011 36.3469 75.9925 37.8214 76.6157 38.2775 77.239 38.7487 77.7862 39.1591 77.8318 39.22 77.8774 39.2656 78.3639 39.6304 78.9416 40.0256 79.504 40.4361 79.9601 40.8313 79.9601 40.9073 79.9601 40.9985 80.0057 41.0289 80.0817 40.9985 80.1425 40.9529 80.3857 41.0745 80.6137 41.2722L81.0546 41.6066 80.6137 41.9258C80.3857 42.1082 80.1121 42.3211 80.0209 42.3971 79.9296 42.4731 79.276 42.9595 78.5615 43.4916 77.847 44.0236 75.7796 45.5894 73.9706 46.9727 72.1465 48.3561 70.5047 49.5874 70.3375 49.709 70.1551 49.8306 69.775 50.1194 69.5014 50.3475 69.2278 50.5755 68.9389 50.7731 68.8477 50.7731 68.7717 50.7731 68.5285 50.9555 68.3309 51.1684 68.1181 51.3964 67.9508 51.5332 67.9508 51.4876 67.9508 51.442 67.7228 51.6092 67.434 51.8676 67.1604 52.1109 66.6131 52.5365 66.2331 52.7949 65.853 53.0685 65.0017 53.707 64.3329 54.2239 63.664 54.7407 63.0712 55.1208 63.0256 55.0751 62.9799 55.0143 62.9343 55.0599 62.9343 55.1512 62.9343 55.2424 62.3415 55.7592 61.6118 56.2913 60.8669 56.8385 59.8332 57.629 59.286 58.0394 58.7387 58.4651 58.2523 58.7691 58.1915 58.7235 58.1155 58.6931 58.0699 58.7235 58.0699 58.8147 58.0699 58.9059 57.2338 59.59 56.2153 60.3501 55.1816 61.1102 54.2087 61.8398 54.0262 61.9918 53.707 62.2655 53.5246 62.4023 51.8372 63.6488 51.29 64.0441 50.6819 64.5305 50.4691 64.7129 50.2563 64.9105 50.0434 65.0626 49.9978 65.0626 49.9522 65.0626 49.6634 65.2602 49.3898 65.5186 49.1009 65.7618 48.8273 65.9746 48.7665 65.9746 48.7209 65.9746 48.4017 66.2027 48.0672 66.4763 46.8663 67.434 46.7447 67.5404 46.2583 67.8292 45.9846 67.9965 45.7566 68.1789 45.7566 68.2397 45.7566 68.3005 45.5286 68.4677 45.2702 68.6349 44.9965 68.7869 44.7381 68.9693 44.6925 69.015 44.5405 69.2278 42.5795 70.6871 42.4579 70.6871 42.3971 70.6719 42.093 70.4895 41.789 70.2615ZM43.4004 69.6686C43.6588 69.471 43.9324 69.2582 44.0084 69.1974 44.0996 69.1366 44.6317 68.7413 45.2094 68.3309 45.7718 67.9052 46.7751 67.1452 47.444 66.6283 48.0976 66.0963 48.6905 65.6706 48.7817 65.6706 48.8577 65.6706 48.9489 65.6098 48.9793 65.549 49.0097 65.473 50.3323 64.4545 51.9132 63.2688 53.5094 62.0831 54.9991 60.9581 55.2424 60.7605 55.4704 60.5781 55.8048 60.3653 55.9568 60.2893 56.1241 60.2133 56.2457 60.0917 56.2457 60.0156 56.2457 59.9548 56.3673 59.894 56.5041 59.894 56.6409 59.894 56.7017 59.8484 56.6561 59.8028 56.5801 59.7116 61.7334 55.7592 62.0527 55.6528 62.1135 55.6376 62.3567 55.44 62.5999 55.212 62.8431 54.9839 63.3448 54.5887 63.7096 54.3455 64.4849 53.8286 65.5642 53.0229 65.6706 52.8861 65.8986 52.6125 71.5536 48.4473 71.7056 48.4473 71.812 48.4473 71.8576 48.4017 71.8272 48.3561 71.7968 48.2953 72.6025 47.6568 73.6058 46.9119 74.6091 46.167 75.506 45.483 75.5972 45.3918 75.7036 45.2854 76.0229 45.0573 76.3117 44.8445 76.6005 44.6469 77.087 44.2821 77.3758 44.054 78.0751 43.4764 78.0447 43.5068 79.3216 42.5795 79.9145 42.1386 80.4161 41.6978 80.4161 41.5914 80.4161 41.5002 80.2337 41.3026 80.0057 41.1657 79.6408 40.9529 77.923 39.6304 77.2694 39.0679 77.163 38.9767 76.7525 38.6879 76.3573 38.4295 75.6428 37.943 74.1531 36.8485 73.1346 36.058 72.8609 35.83 72.5113 35.5868 72.3745 35.5108 72.2377 35.4348 72.0401 35.2676 71.9336 35.1611 71.8272 35.0547 71.6904 34.9635 71.6296 34.9635 71.5688 34.9635 71.2952 34.7659 71.0216 34.5379 70.3375 33.9602 70.0791 33.7626 68.0269 32.2881 67.0236 31.5584 66.1419 30.8895 66.0507 30.7831 65.9746 30.6919 65.8378 30.6007 65.777 30.6007 65.701 30.5855 65.321 30.3271 64.9105 30.0078 64.5001 29.6734 63.6944 29.0805 63.1016 28.6549 62.5087 28.2444 62.0374 27.8492 62.0222 27.7884 62.0222 27.7124 61.9462 27.6668 61.855 27.6668 61.7486 27.6668 61.5206 27.4996 61.323 27.2867 61.1254 27.0739 60.9125 26.9067 60.8517 26.9067 60.7757 26.9067 59.8788 26.2682 58.8299 25.4778 57.781 24.7025 56.7473 23.9424 56.5193 23.7904 56.2913 23.6536 56.1393 23.456 56.2001 23.3648 56.2457 23.2887 56.2305 23.2583 56.1545 23.3039 56.0176 23.38 53.9502 21.951 53.8438 21.7078 53.8134 21.6318 53.7222 21.5862 53.631 21.5862 53.4638 21.5862 50.9555 19.7012 50.6819 19.3515 50.5907 19.2451 50.4539 19.1539 50.3931 19.1539 50.3171 19.1539 49.785 18.7891 49.1922 18.3482 48.5993 17.9074 47.9456 17.4362 47.7328 17.2993 47.52 17.1777 47.1247 16.8585 46.8663 16.6001 46.5927 16.3568 46.3647 16.1744 46.3647 16.2048 46.3647 16.2656 44.3733 14.8215 43.5524 14.183 42.3059 13.1949 42.3667 13.2101 41.485 13.8942 41.1353 14.183 40.7705 14.3806 40.6793 14.335 40.6033 14.2894 40.5729 14.3046 40.6185 14.3806 40.6945 14.5023 38.6271 16.2048 37.867 16.6457 37.5934 16.7977 36.3165 17.7858 36.1796 17.9378 35.9364 18.2114 34.5075 19.1539 34.3403 19.1539 34.2338 19.1539 34.2034 19.1995 34.2491 19.2451 34.3403 19.3363 33.9146 19.7164 32.9265 20.4461 32.6985 20.6133 31.7256 21.343 30.7679 22.0726 29.8102 22.8023 29.0349 23.3648 29.0349 23.3039 29.0349 23.2431 28.9437 23.3039 28.8525 23.4408 28.5637 23.8056 25.949 25.7362 25.7362 25.7362 25.6298 25.7362 25.5842 25.797 25.6146 25.8578 25.6602 25.9186 25.5234 26.0706 25.3105 26.2074 25.1129 26.3443 24.5657 26.7547 24.1096 27.1347 23.6384 27.5148 23.2583 27.7732 23.2583 27.7276 23.2583 27.6668 23.1215 27.7732 22.9543 27.9708 22.7871 28.1684 22.6503 28.2748 22.6503 28.2292 22.6503 28.1684 22.5287 28.2444 22.3767 28.3965 22.2246 28.5333 21.875 28.8221 21.6014 29.0349 21.1301 29.3846 20.1572 30.1294 18.9411 31.0567 18.6827 31.2391 18.4091 31.376 18.333 31.3456 18.2418 31.3152 18.2114 31.3304 18.2722 31.3912 18.333 31.452 17.9226 31.832 17.3906 32.2424 16.8433 32.6529 16.1744 33.1697 15.916 33.3826 15.6424 33.5954 15.3687 33.7626 15.3079 33.7474 15.2319 33.7322 15.0495 33.8994 14.8823 34.1274 14.6999 34.3403 14.5023 34.4771 14.4263 34.4315 14.3502 34.3707 14.2894 34.4011 14.2894 34.4771 14.2894 34.5683 12.8301 35.7236 11.0667 37.0765 4.48445 42.0474 4.60606 41.941 5.0013 42.0778 5.19892 42.1386 7.23593 43.6588 10.033 45.8174 10.9147 46.5015 11.7812 47.1552 11.9484 47.2768 12.4653 47.6264 13.879 48.7209 14.2742 49.0857 14.4719 49.253 14.6847 49.405 14.7303 49.405 14.7759 49.405 14.9887 49.557 15.2015 49.7546 15.4144 49.937 15.84 50.2563 16.144 50.4691 16.4633 50.6819 16.7217 50.8947 16.7217 50.9707 16.7217 51.0315 16.7977 51.0771 16.8889 51.0771 16.9801 51.0771 17.5426 51.4724 18.1354 51.9588 18.7435 52.4453 20.5829 53.8438 22.2398 55.0904 23.8816 56.3217 25.2345 57.401 25.2345 57.4922 25.2345 57.5834 25.2801 57.629 25.3258 57.5682 25.417 57.477 32.1664 62.4935 32.5009 62.9039 32.5921 63.0408 32.6833 63.1016 32.6833 63.0408 32.6833 62.9799 32.8049 63.0408 32.9569 63.1472 33.2914 63.436 34.5227 64.4241 34.8115 64.6521 34.9331 64.7585 35.2219 64.9561 35.4348 65.093 35.6476 65.2298 35.9364 65.4426 36.0428 65.549 36.1644 65.6554 36.4989 65.9138 36.7877 66.1267 37.6542 66.7195 37.715 66.7803 38.3687 67.4188 38.7031 67.7532 38.9159 67.9204 38.8399 67.7988 38.7335 67.6164 38.7487 67.6012 38.9311 67.738 40.5577 68.9846 41.2874 69.5622 41.3786 69.699 41.4394 69.775 41.5002 69.7902 41.5002 69.7294 41.5002 69.6534 41.713 69.775 41.9714 69.9879 42.3667 70.3223 42.4883 70.3679 42.7011 70.2007 42.8379 70.0943 43.1571 69.851 43.4004 69.6686Z" stroke="#000000" stroke-width="0.134883" fill="#70AD47" transform="matrix(1.00028 0 0 -1 594 330.984)"/><path d="M28.8981 54.9383 28.5333 54.5583 29.0045 54.0718 29.491 53.5854 29.9622 54.0566 30.4335 54.5279 30.0078 54.9383C29.4758 55.4248 29.3542 55.4248 28.8981 54.9383Z" stroke="#000000" stroke-width="0.134883" fill="#70AD47" transform="matrix(1.00028 0 0 -1 594 330.984)"/><path d="M56.3521 54.7559 55.9416 54.3303 56.3977 53.8894 56.8537 53.4486 57.3098 53.8894 57.7658 54.3303 57.3554 54.7559C57.1274 54.9839 56.8993 55.1816 56.8537 55.1816 56.8081 55.1816 56.5801 54.9839 56.3521 54.7559Z" stroke="#000000" stroke-width="0.134883" fill="#70AD47" transform="matrix(1.00028 0 0 -1 594 330.984)"/><path d="M59.3924 54.1022C58.9211 53.555 58.7083 53.1902 58.7539 52.9925 58.7843 52.8101 58.9211 51.9588 59.0579 51.0771 59.3772 49.0705 59.5596 48.3409 59.7572 48.3409 59.8332 48.3409 60.0308 48.5993 60.1677 48.9185 60.3805 49.3746 60.4261 49.9066 60.3957 51.9436 60.3805 53.3118 60.3045 54.5279 60.2285 54.6647 60.1221 54.8623 59.97 54.7711 59.3924 54.1022Z" stroke="#000000" stroke-width="0.134883" fill="#70AD47" transform="matrix(1.00028 0 0 -1 594 330.984)"/><path d="M31.8776 54.2999 31.4672 53.8742 31.9232 53.4334 32.3793 52.9925 32.8353 53.4334 33.2914 53.8742 32.8809 54.2999C32.6529 54.5279 32.4249 54.7255 32.3793 54.7255 32.3337 54.7255 32.1056 54.5279 31.8776 54.2999Z" stroke="#000000" stroke-width="0.134883" fill="#70AD47" transform="matrix(1.00028 0 0 -1 594 330.984)"/><path d="M29.0653 52.3693C28.5333 51.9284 28.214 51.214 28.3053 50.7123 28.3813 50.3627 28.3509 50.3627 27.0435 50.2715 25.5386 50.1803 24.6417 49.8154 24.3529 49.177 24.0336 48.4777 24.3072 48.2497 25.569 48.1128 26.9827 47.976 26.5875 47.7632 24.8849 47.748 23.532 47.7328 22.6959 48.0216 22.5743 48.5537 22.5287 48.7209 22.4831 49.1465 22.4679 49.4658 22.3767 50.7427 21.6166 50.013 21.4798 48.5233 21.3125 46.7599 22.2854 45.9694 24.4593 46.091 26.2986 46.1975 27.1195 46.7599 27.0891 47.9 27.0739 48.5537 26.9067 48.6905 25.9186 48.7665 24.8393 48.8577 24.8241 49.1009 25.9034 49.1009 26.5571 49.1009 26.8155 49.0249 27.1803 48.7209 27.7124 48.2801 28.214 48.2345 28.9285 48.5841 29.3998 48.8121 29.4758 48.8121 29.9166 48.5841 30.5399 48.2649 31.5888 48.2649 31.9536 48.5993 32.212 48.8273 32.2424 48.8273 32.5009 48.5993 32.8657 48.2801 33.869 48.2649 34.2186 48.5841 34.4619 48.7969 34.5227 48.7969 34.9483 48.5841 35.5716 48.2497 36.5293 48.2801 37.2438 48.6449 39.0831 49.5874 39.4176 52.3693 37.6846 52.3237 37.0917 52.3085 36.5749 51.974 35.6932 51.0163L34.9635 50.2411 34.7811 50.7427C34.5531 51.3508 34.3251 51.366 34.097 50.7731 33.9602 50.3931 33.8386 50.3171 33.413 50.3171 32.7745 50.3171 32.5769 50.4539 32.4553 50.9707 32.3185 51.518 32.1664 51.4876 31.7864 50.8491 31.5432 50.4387 31.376 50.3171 31.0263 50.3171L30.5703 50.3171 30.6615 51.138C30.7375 51.8828 30.7071 52.0044 30.3575 52.3541 29.871 52.8405 29.6278 52.8557 29.0653 52.3693ZM29.8558 51.1836C30.1142 51.0011 30.1142 50.9555 29.8862 50.7275 29.6734 50.5299 29.567 50.5147 29.2629 50.6515 28.8221 50.8491 28.7917 51.0011 29.1565 51.214 29.491 51.4268 29.5366 51.4116 29.8558 51.1836ZM37.4566 50.9859C37.5934 50.9403 37.6998 50.8035 37.6998 50.6819 37.6998 50.3627 37.1829 50.1651 36.3925 50.1651 35.754 50.1651 35.6932 50.1955 35.8756 50.3779 36.1188 50.6059 36.9397 51.0771 37.1221 51.0771 37.1677 51.0771 37.3198 51.0315 37.4566 50.9859Z" stroke="#000000" stroke-width="0.134883" fill="#70AD47" transform="matrix(1.00028 0 0 -1 594 330.984)"/><path d="M42.9747 52.3237 42.5643 51.898 43.0203 51.4572 43.4764 51.0163 43.9324 51.4572 44.3885 51.898 43.978 52.3237C43.75 52.5517 43.522 52.7493 43.4764 52.7493 43.4308 52.7493 43.2028 52.5517 42.9747 52.3237Z" stroke="#000000" stroke-width="0.134883" fill="#70AD47" transform="matrix(1.00028 0 0 -1 594 330.984)"/><path d="M51.7308 52.5213C51.29 52.2173 50.8187 50.9707 51.0467 50.7427 51.1836 50.6059 51.3052 50.6363 51.5332 50.8491 51.7612 51.0619 51.974 51.0923 52.5365 51.0163 52.9165 50.9707 53.3118 50.8795 53.403 50.8187 53.7222 50.6211 52.5365 50.3475 51.366 50.3323L50.2107 50.3171 49.7394 51.0771C49.2226 51.9132 48.7513 52.1261 48.052 51.8372 47.6568 51.67 47.4896 51.442 47.216 50.5907 47.0791 50.1651 46.1975 50.2259 45.7566 50.6971 45.3462 51.138 45.2398 51.0923 44.8597 50.3171 44.5861 49.7394 44.5861 49.7242 44.8749 49.4506 45.4526 48.9337 45.5286 48.6145 45.1485 48.3105 44.8901 48.0976 44.5557 48.0368 43.7196 48.0368 42.2907 48.052 42.0322 48.2345 42.0778 49.2682 42.1082 49.9066 42.0626 50.0282 41.8498 49.9826 41.5154 49.9218 41.2266 49.0553 41.2114 48.052 41.1962 47.3376 41.257 47.1856 41.6978 46.7447 42.0626 46.3799 42.3971 46.2127 42.8987 46.1366 44.5101 45.8934 45.6958 46.4559 46.0606 47.6264 46.2583 48.2497 46.3495 48.3409 46.6991 48.3409 46.9271 48.3409 47.2464 48.4777 47.3984 48.6449L47.6872 48.9489 47.9608 48.6449C48.3105 48.2497 49.1465 48.2345 49.5418 48.6297 49.8154 48.9033 49.8306 48.9033 50.0738 48.6297 50.5603 48.052 52.2021 48.3105 53.2662 49.1465 53.7374 49.5114 53.8894 49.5722 53.935 49.405 53.9806 49.2834 54.2087 48.9945 54.4367 48.7665 54.8167 48.3713 54.9535 48.3409 56.0176 48.3409 57.097 48.3409 57.2186 48.3713 57.629 48.7817 58.0394 49.1922 58.0699 49.3138 58.0699 50.3931 58.0699 51.2444 57.9938 51.7004 57.7658 52.1413 57.5986 52.4757 57.4314 52.7493 57.3858 52.7493 57.3554 52.7493 57.1122 52.4453 56.8689 52.0804L56.4129 51.4268 56.7777 51.0771C57.4466 50.4539 57.2946 50.3171 55.9264 50.3171 55.1512 50.3171 54.7407 50.3779 54.8015 50.4691 54.8471 50.5603 55.0143 50.6211 55.1664 50.6211 55.3488 50.6211 55.5008 50.8187 55.6072 51.214 55.8808 52.0956 55.8504 52.1413 55.136 52.1413 54.7711 52.1413 54.0718 52.2781 53.5854 52.4453 52.5213 52.8101 52.1565 52.8253 51.7308 52.5213ZM49.1618 50.8339C49.2986 50.7123 49.405 50.3931 49.405 50.1499 49.405 49.5418 48.9033 49.5418 48.6449 50.1651 48.3409 50.9099 48.6601 51.3356 49.1618 50.8339Z" stroke="#000000" stroke-width="0.134883" fill="#70AD47" transform="matrix(1.00028 0 0 -1 594 330.984)"/><path d="M52.8253 46.8207 52.3845 46.3647 52.8253 45.9086 53.2662 45.4526 53.7222 45.9086 54.1935 46.3647 53.7222 46.8207 53.2662 47.2768 52.8253 46.8207Z" stroke="#000000" stroke-width="0.134883" fill="#70AD47" transform="matrix(1.00028 0 0 -1 594 330.984)"/><path d="M30.1446 41.9562C29.2173 41.7586 28.6853 41.4394 27.986 40.6489 27.1347 39.6912 26.8459 38.6727 26.9371 36.9549 27.0739 34.4163 28.3813 32.8961 30.6311 32.7289 31.8624 32.6225 32.6529 32.8657 33.4738 33.5954 34.1578 34.1882 34.7963 35.3588 34.5531 35.5716 34.4923 35.6324 34.097 35.7844 33.7018 35.9212L32.9721 36.1644 32.7441 35.5564C32.2576 34.3707 31.1783 33.945 30.0382 34.4923 29.0653 34.9787 28.8069 35.5716 28.8069 37.3958 28.8221 39.0375 29.0349 39.6456 29.8406 40.1472 30.2206 40.3905 30.5095 40.4361 31.1479 40.3905 31.8472 40.3449 32.0448 40.2537 32.4097 39.8432 32.6377 39.5848 32.8353 39.2656 32.8353 39.1591 32.8353 38.9767 32.9721 38.9767 33.717 39.1743 34.1882 39.296 34.6139 39.4176 34.6291 39.448 34.6595 39.4784 34.5075 39.8432 34.2795 40.2689 33.7778 41.181 32.9721 41.7586 31.8928 41.9562 31.0263 42.1234 31.0415 42.1234 30.1446 41.9562Z" stroke="#000000" stroke-width="0.134883" fill="#70AD47" transform="matrix(1.00028 0 0 -1 594 330.984)"/><path d="M52.6125 41.9562C50.4387 41.5002 49.1161 39.5544 49.2834 37.0005 49.4202 34.9483 50.5603 33.3826 52.2781 32.8809 53.4334 32.5465 55.0599 32.6833 56.2001 33.2153 57.629 33.869 57.6138 33.8386 57.6138 35.906L57.6138 37.6998 55.6376 37.6998 53.6614 37.6998 53.6614 36.9397 53.6614 36.1796 54.7255 36.1796 55.7896 36.1796 55.7896 35.5716C55.7896 35.0243 55.7288 34.9483 55.212 34.6747 52.7797 33.4282 50.7731 35.1155 51.1532 38.095 51.3508 39.6912 52.3085 40.4969 53.8742 40.3905 54.6495 40.3449 54.8319 40.2689 55.1816 39.8736 55.4096 39.6152 55.6224 39.3264 55.6528 39.2352 55.7136 39.0527 56.9601 39.1591 57.325 39.372 57.5834 39.5392 57.1426 40.5577 56.5649 41.1049 55.7744 41.865 54.0262 42.2451 52.6125 41.9562Z" stroke="#000000" stroke-width="0.134883" fill="#70AD47" transform="matrix(1.00028 0 0 -1 594 330.984)"/><path d="M38.5359 41.7586C38.4903 41.6522 38.4751 39.6304 38.4903 37.2438L38.5359 32.9113 39.4024 32.8657 40.2841 32.8201 40.3145 35.6628 40.3601 38.5055 42.093 35.678 43.8108 32.8353 44.7077 32.8353 45.6046 32.8353 45.6046 37.411 45.6046 41.9714 44.8141 41.9258 44.0084 41.8802 43.9324 38.9463 43.8564 36.0124 42.0626 38.9767 40.2537 41.9562 39.4328 41.9562C38.9007 41.9562 38.5815 41.8802 38.5359 41.7586Z" stroke="#000000" stroke-width="0.134883" fill="#70AD47" transform="matrix(1.00028 0 0 -1 594 330.984)"/><path d="M43.5524 29.795C43.2788 29.491 43.2788 29.4758 43.598 29.1413L43.9324 28.8221 44.2669 29.1413C44.5861 29.4758 44.5861 29.491 44.3125 29.795 44.1604 29.9622 43.9932 30.099 43.9324 30.099 43.8716 30.099 43.7044 29.9622 43.5524 29.795Z" stroke="#000000" stroke-width="0.134883" fill="#70AD47" transform="matrix(1.00028 0 0 -1 594 330.984)"/><path d="M48.2345 28.8373C47.4744 28.5637 46.7903 28.3053 46.7447 28.2444 46.6839 28.1988 46.5775 27.8796 46.5167 27.5604 46.3799 27.0131 46.4103 26.9523 47.0943 26.253 47.9152 25.417 47.8392 25.2345 46.6231 25.2345 45.939 25.2345 45.863 25.2649 45.711 25.6906 45.6198 25.949 45.4526 26.1466 45.3614 26.1466 45.255 26.1466 45.1029 25.949 45.0117 25.6906 44.9357 25.4474 44.7837 25.2345 44.6925 25.2345 44.5861 25.2345 44.4341 25.4474 44.3429 25.6906 44.2517 25.949 44.1148 26.1466 44.054 26.1466 43.9932 26.1466 43.8412 25.949 43.7044 25.6906 43.5676 25.4474 43.4004 25.2345 43.3244 25.2345 43.2484 25.2345 43.0811 25.4474 42.9443 25.6906 42.6555 26.253 42.5491 26.253 42.2299 25.6906 41.8498 25.0369 41.4394 25.0977 41.0137 25.8882 40.7249 26.4051 40.5729 26.5419 40.1776 26.5723 39.5848 26.6331 39.3112 26.2682 39.0679 25.1281 38.8247 24.0032 39.1439 23.4104 40.0256 23.4104 40.6641 23.4104 40.5273 23.1519 39.5392 22.5287 39.0527 22.2246 38.5207 21.8902 38.3687 21.7838 37.9126 21.495 38.3687 21.2821 39.4784 21.2821 40.2537 21.2821 40.4817 21.343 40.7401 21.6166 41.0289 21.9206 41.3482 22.7719 41.3482 23.2279 41.3482 23.3191 41.5002 23.4104 41.6826 23.4104 41.865 23.4104 42.1386 23.5168 42.2907 23.6688 42.5491 23.8968 42.5795 23.8968 42.8379 23.6688 43.1875 23.3496 43.3092 23.3496 43.6436 23.6536 43.8868 23.8664 43.9476 23.8664 44.2973 23.6232 44.6773 23.38 44.7229 23.38 44.9813 23.6232 45.255 23.8816 45.3006 23.8816 45.6654 23.6384 46.1823 23.2887 47.52 23.3952 48.0824 23.8056 48.8729 24.3833 48.9945 25.4018 48.4169 26.5419 48.2041 26.9523 48.0368 27.302 48.0368 27.302 48.0368 27.3172 48.3561 27.4084 48.7665 27.5148 49.1618 27.6212 49.5266 27.758 49.5722 27.8036 49.7242 27.9556 49.8914 29.339 49.7546 29.3238 49.6938 29.3238 49.0097 29.0957 48.2345 28.8373ZM40.3449 25.0977C40.4513 24.9305 40.132 24.7937 39.8736 24.9001 39.7672 24.9305 39.676 25.0217 39.676 25.0977 39.676 25.2801 40.2385 25.2801 40.3449 25.0977Z" stroke="#000000" stroke-width="0.134883" fill="#70AD47" transform="matrix(1.00028 0 0 -1 594 330.984)"/><path d="M42.8683 28.1988 42.5035 27.8036 42.9139 27.3932 43.3244 26.9979 43.6588 27.3324 43.9932 27.6668 44.3429 27.3324 44.7077 26.9979 45.1181 27.4084 45.5286 27.8188 45.1333 28.1988 44.7533 28.5789 44.4341 28.2748C44.0236 27.8948 43.9476 27.8948 43.5524 28.2748L43.2332 28.5789 42.8683 28.1988Z" stroke="#000000" stroke-width="0.134883" fill="#70AD47" transform="matrix(1.00028 0 0 -1 594 330.984)"/><path d="M36.5293 25.3714 36.1796 24.7329 36.6357 24.216C36.8941 23.9424 37.0917 23.6536 37.0917 23.5776 37.0917 23.3952 36.4837 22.8783 35.5412 22.2854 35.0547 21.9814 34.6595 21.6774 34.6595 21.6014 34.6595 21.3886 35.0851 21.2821 36.0276 21.2821 36.8029 21.2821 36.9549 21.3277 37.2285 21.6774 37.715 22.3006 37.8974 23.0607 37.8062 24.14 37.7302 25.0521 37.3958 25.8122 37.0005 25.949 36.9245 25.9642 36.7117 25.7058 36.5293 25.3714Z" stroke="#000000" stroke-width="0.134883" fill="#70AD47" transform="matrix(1.00028 0 0 -1 594 330.984)"/><path d="M0.0912092 40.4057C0.425643 38.5207 1.04891 37.487 2.11301 37.1221 2.55386 36.9701 2.58426 36.9853 2.58426 37.2894 2.58426 38.3687 1.83939 39.752 0.881689 40.4361 0.0912092 41.0137-0.0152015 41.0137 0.0912092 40.4057Z" stroke="#000000" stroke-width="0.134883" fill="#70AD47" transform="matrix(1.00028 0 0 -1 594 330.984)"/><path d="M84.2469 40.2841C83.4868 39.7368 82.9091 38.9007 82.6051 37.9126 82.2859 36.8637 82.3163 36.7421 82.8027 36.8637 83.502 37.0309 84.0949 37.563 84.4597 38.3687 84.7789 39.0679 85.1134 40.7401 84.9462 40.7401 84.9006 40.7401 84.5813 40.5425 84.2469 40.2841Z" stroke="#000000" stroke-width="0.134883" fill="#70AD47" transform="matrix(1.00028 0 0 -1 594 330.984)"/><path d="M4.04361 37.3806C3.998 37.1069 3.9524 36.6813 3.9524 36.4077 3.9524 36.134 3.90679 35.7084 3.86119 35.45L3.76998 34.9787 3.05551 35.3284C2.67547 35.526 2.09781 35.906 1.76338 36.1644 1.44415 36.4229 1.15532 36.6357 1.10971 36.6357 0.912092 36.6357 1.62656 35.6628 2.15862 35.1915 2.76668 34.6747 4.66687 33.6562 4.78848 33.7778 4.81889 33.8082 4.78848 34.097 4.71247 34.4315 4.65167 34.7659 4.54526 35.6324 4.48445 36.3621 4.37804 37.7758 4.21082 38.1558 4.04361 37.3806Z" stroke="#000000" stroke-width="0.134883" fill="#70AD47" transform="matrix(1.00028 0 0 -1 594 330.984)"/><path d="M80.6593 36.8637C80.5985 36.3621 80.4921 35.45 80.4161 34.8267 80.3249 34.2034 80.2945 33.6714 80.3401 33.6258 80.5377 33.4282 82.7115 34.7051 83.2892 35.374 84.1101 36.3013 84.0797 36.4837 83.198 35.83 82.4379 35.2828 81.5866 34.8115 81.3586 34.8115 81.2826 34.8115 81.1762 35.3132 81.1306 35.9212 81.085 36.5141 80.9786 37.1829 80.9025 37.3958 80.7809 37.7302 80.7505 37.6542 80.6593 36.8637Z" stroke="#000000" stroke-width="0.134883" fill="#70AD47" transform="matrix(1.00028 0 0 -1 594 330.984)"/><path d="M5.9438 35.298C5.79178 34.7811 5.47255 32.5465 5.47255 32.0448 5.47255 31.9688 5.39654 31.9232 5.30533 31.9232 5.06211 31.9232 3.14672 33.2001 2.44745 33.8234 2.06741 34.173 1.82418 34.3099 1.82418 34.173 1.82418 33.7322 2.70587 32.5921 3.52676 31.9536 4.30203 31.3608 6.67347 30.023 6.76468 30.1294 6.79508 30.1598 6.76468 30.4791 6.68867 30.8591 6.62787 31.2391 6.52146 32.3945 6.46065 33.4434 6.32384 35.7692 6.18702 36.2253 5.9438 35.298Z" stroke="#000000" stroke-width="0.134883" fill="#70AD47" transform="matrix(1.00028 0 0 -1 594 330.984)"/><path d="M78.6831 34.4163C78.6375 33.6714 78.5311 32.3793 78.4551 31.5432 78.3639 30.7071 78.3335 30.0078 78.3639 29.9774 78.4855 29.8558 80.7353 31.0871 81.541 31.7104 82.2859 32.3033 83.3044 33.6866 83.3044 34.1274 83.3044 34.2034 83.0156 33.9906 82.6659 33.641 81.9211 32.9265 79.8232 31.5888 79.6408 31.7104 79.5648 31.756 79.504 32.0752 79.504 32.4249 79.4888 33.2762 79.1088 35.4196 78.9264 35.602 78.8199 35.7084 78.7439 35.2676 78.6831 34.4163Z" stroke="#000000" stroke-width="0.134883" fill="#70AD47" transform="matrix(1.00028 0 0 -1 594 330.984)"/><path d="M8.07201 32.7593C7.9808 32.4249 7.84399 31.2848 7.79839 30.2206 7.75278 29.1413 7.67677 28.2748 7.63117 28.2748 7.32714 28.2748 4.43885 29.9622 3.81558 30.5095 3.38994 30.8743 3.04031 31.1327 3.04031 31.0567 3.04031 30.9959 3.23793 30.5855 3.49635 30.1598 4.0132 29.2477 4.87969 28.4573 6.15662 27.7428 6.9927 27.2715 9.42495 26.253 9.51616 26.3443 9.53136 26.3595 9.45535 26.7395 9.33374 27.1955 9.22733 27.6516 8.98411 29.0197 8.81689 30.2358 8.64967 31.452 8.45205 32.6681 8.37604 32.9113L8.25443 33.3674 8.07201 32.7593Z" stroke="#000000" stroke-width="0.134883" fill="#70AD47" transform="matrix(1.00028 0 0 -1 594 330.984)"/><path d="M76.7221 32.8809C76.6765 32.8049 76.4789 31.7104 76.3117 30.4639 76.1293 29.2173 75.886 27.758 75.7644 27.2259 75.6428 26.6939 75.582 26.2226 75.6276 26.177 75.8556 25.949 79.4432 27.7124 80.4161 28.5333 81.085 29.1109 81.9363 30.2967 81.9363 30.6767 81.9363 30.7831 81.5866 30.5703 81.1458 30.1902 80.3857 29.5366 77.8774 28.1228 77.467 28.1228 77.2998 28.1228 77.239 28.6093 77.1934 30.2206 77.1174 32.1664 76.935 33.2305 76.7221 32.8809Z" stroke="#000000" stroke-width="0.134883" fill="#70AD47" transform="matrix(1.00028 0 0 -1 594 330.984)"/><path d="M10.413 29.2629C10.337 28.9285 10.3674 27.8188 10.4587 26.7547 10.5499 25.721 10.5955 24.8241 10.5499 24.7937 10.3218 24.5657 7.03831 25.9338 6.09581 26.6331 5.62457 26.9979 5.51816 26.8763 5.85259 26.3443 6.24783 25.7362 7.09912 24.9913 7.9808 24.4745 8.81689 23.988 11.1123 23.1975 12.1156 23.0303L12.7693 22.9239 12.4653 23.608C12.298 23.9728 11.8876 25.3258 11.5532 26.6027 11.2035 27.8796 10.8387 29.1413 10.7323 29.3998L10.5347 29.871 10.413 29.2629Z" stroke="#000000" stroke-width="0.134883" fill="#70AD47" transform="matrix(1.00028 0 0 -1 594 330.984)"/><path d="M73.8946 27.7124C73.6362 26.7243 73.1802 25.2041 72.9065 24.3225 72.6177 23.4408 72.3897 22.7111 72.4201 22.6959 72.4353 22.6807 72.8609 22.7719 73.3474 22.8935 76.0685 23.5624 78.2119 24.7025 79.048 25.9186 79.3064 26.2834 79.504 26.6179 79.504 26.6787 79.504 26.7243 79.2 26.5571 78.8199 26.2986 77.7102 25.5386 74.7915 24.3529 74.4875 24.5505 74.4267 24.5809 74.4419 24.9761 74.5027 25.417 74.6699 26.5571 74.6699 29.491 74.5027 29.491 74.4267 29.491 74.1531 28.6853 73.8946 27.7124Z" stroke="#000000" stroke-width="0.134883" fill="#70AD47" transform="matrix(1.00028 0 0 -1 594 330.984)"/><path d="M13.2861 27.1499C13.1493 26.8003 13.3165 25.2345 13.6966 23.1367 13.879 22.1942 13.9854 21.3734 13.9246 21.3277 13.727 21.1301 10.6411 22.027 9.33374 22.6655 8.58887 23.0303 7.92 23.3496 7.84399 23.38 7.58556 23.5168 8.40645 22.4223 8.9537 21.9206 9.66817 21.2669 11.6444 20.3092 12.9973 19.99 14.1678 19.7012 16.6153 19.3059 16.7065 19.382 16.7369 19.4124 16.6153 19.6708 16.4481 19.9444 16.0984 20.5221 15.3992 22.2398 14.6695 24.3225 13.9246 26.4507 13.423 27.4844 13.2861 27.1499Z" stroke="#000000" stroke-width="0.134883" fill="#70AD47" transform="matrix(1.00028 0 0 -1 594 330.984)"/><path d="M71.1584 26.0858C70.8999 25.4626 70.4135 24.1552 70.0639 23.1519 69.7142 22.1638 69.1974 20.8869 68.9085 20.3092 68.6197 19.7468 68.4221 19.2299 68.4677 19.1843 68.6197 19.0475 70.9607 19.4428 72.4201 19.8532 74.0315 20.3092 74.9283 20.7349 75.9469 21.5558 76.6005 22.0726 77.4974 23.2431 77.1326 23.0911 77.0566 23.0607 76.4789 22.7719 75.8556 22.4679 74.5635 21.8294 72.2833 21.1301 71.508 21.1301 71.0368 21.1301 70.9911 21.1757 71.0672 21.4798 71.4624 23.1671 71.6296 24.3225 71.7056 25.6602 71.7512 26.5115 71.7512 27.2107 71.7056 27.2107 71.66 27.2107 71.4168 26.7091 71.1584 26.0858Z" stroke="#000000" stroke-width="0.134883" fill="#70AD47" transform="matrix(1.00028 0 0 -1 594 330.984)"/><path d="M16.8889 24.0184C16.8737 23.1823 17.3449 20.9933 17.877 19.4124 18.0898 18.7587 18.2418 18.1354 18.1962 18.029 18.1354 17.877 17.9074 17.8466 17.3754 17.8922 15.8552 18.0442 13.5598 18.5763 12.3588 19.0627 11.6596 19.3363 11.0971 19.5188 11.0971 19.458 11.0971 19.1691 12.8757 17.725 13.727 17.3297 15.3535 16.5545 18.4699 15.9616 20.8109 15.9616L21.5862 15.9616 20.9629 16.9193C20.6285 17.4362 20.0812 18.4091 19.762 19.0779 17.8162 23.1519 17.3297 24.1248 17.1169 24.3985 16.8889 24.6873 16.8889 24.6721 16.8889 24.0184Z" stroke="#000000" stroke-width="0.134883" fill="#70AD47" transform="matrix(1.00028 0 0 -1 594 330.984)"/><path d="M67.8292 23.9728C67.6468 23.7144 66.8715 22.1334 66.0811 20.4917 65.2754 18.8347 64.3785 17.1169 64.0745 16.6457 63.7552 16.1744 63.5272 15.7792 63.5576 15.7488 63.6944 15.6576 67.358 15.9464 68.1941 16.1136 69.8054 16.4329 71.4016 17.0257 72.3137 17.6642 73.1194 18.2266 74.0163 19.0931 74.0315 19.3363 74.0315 19.382 73.6818 19.2603 73.2714 19.0627 72.1161 18.5003 70.0183 17.953 68.3765 17.7554 67.5556 17.6642 66.8563 17.6186 66.8107 17.6642 66.7651 17.7098 66.9019 18.2874 67.0996 18.9411 67.7684 21.0389 68.4525 24.4745 68.2093 24.4745 68.1637 24.4745 67.9965 24.2464 67.8292 23.9728Z" stroke="#000000" stroke-width="0.134883" fill="#70AD47" transform="matrix(1.00028 0 0 -1 594 330.984)"/><path d="M20.4613 21.8598C20.6893 20.5525 21.799 17.649 22.9695 15.3231 23.2127 14.8519 23.3496 14.4263 23.2735 14.3806 23.2127 14.335 22.5135 14.3654 21.723 14.4567 18.6979 14.7759 15.4752 15.5816 13.9094 16.4025 12.7845 16.9801 12.7845 16.9801 13.6054 16.1136 16.0984 13.5142 19.6404 12.3132 24.7937 12.3132 26.1314 12.3132 27.2107 12.3588 27.2107 12.4044 27.2107 12.4501 26.9067 12.8301 26.5419 13.2405 25.7514 14.1222 24.9153 15.3687 23.1519 18.2874 21.7534 20.6285 20.7501 22.1334 20.5221 22.2702 20.4309 22.331 20.4005 22.179 20.4613 21.8598Z" stroke="#000000" stroke-width="0.134883" fill="#70AD47" transform="matrix(1.00028 0 0 -1 594 330.984)"/><path d="M63.9832 21.343C63.436 20.5525 62.2807 18.7283 60.9885 16.5697 60.0004 14.8975 59.0579 13.5598 58.3283 12.7845L57.7658 12.1612 58.1611 12.07C58.7843 11.9028 63.3448 12.1308 64.5457 12.374 67.2364 12.9213 69.4102 13.955 71.0064 15.4448 72.3745 16.7217 72.3745 16.7825 70.9911 16.1288 70.2767 15.7944 69.091 15.3383 68.3613 15.1255 66.4155 14.5783 61.7182 13.9246 61.7182 14.2134 61.7182 14.2438 62.1135 15.1559 62.5999 16.22 63.7856 18.7891 64.2569 20.0204 64.4697 20.9629 64.7129 22.0878 64.5913 22.179 63.9832 21.343Z" stroke="#000000" stroke-width="0.134883" fill="#70AD47" transform="matrix(1.00028 0 0 -1 594 330.984)"/><path d="M25.3714 17.4514C25.7666 16.3112 26.8003 14.3046 27.8492 12.6325 28.4877 11.614 28.7005 11.1579 28.5789 11.0363 28.4877 10.9451 27.4236 10.8843 25.645 10.8843 22.7871 10.8843 20.8261 11.1731 19.3668 11.7812L18.8043 12.0092 19.0779 11.7052C19.5492 11.1883 21.4342 10.0786 22.5591 9.65297 25.0065 8.74088 28.138 8.52806 30.9959 9.12092 33.3674 9.60737 33.3066 9.53136 32.1664 10.4739 31.0719 11.3707 30.6311 11.8724 28.0924 15.0647 27.1043 16.296 26.0402 17.5122 25.7058 17.7706L25.0977 18.257 25.3714 17.4514Z" stroke="#000000" stroke-width="0.134883" fill="#70AD47" transform="matrix(1.00028 0 0 -1 594 330.984)"/><path d="M59.0275 17.2233C58.6171 16.8281 57.3554 15.3383 56.2153 13.9094 54.1175 11.3099 53.8134 10.9755 52.6429 10.033 52.2781 9.75938 51.9892 9.47055 51.9892 9.42495 51.9892 9.36414 52.7189 9.15132 53.631 8.9537 54.9079 8.68007 55.7288 8.58887 57.4618 8.58887 59.9548 8.58887 61.2166 8.83209 63.0256 9.65297 64.0592 10.1242 65.8682 11.2491 66.0355 11.538 66.0811 11.614 65.625 11.5228 65.017 11.3251 63.3752 10.8083 61.4598 10.5955 58.7995 10.6563 57.4922 10.6867 56.3825 10.7627 56.3217 10.8235 56.2609 10.8691 56.5649 11.4164 56.9753 12.0396 58.2979 14.0006 60.0917 17.649 59.8484 17.8922 59.8028 17.9226 59.438 17.6186 59.0275 17.2233Z" stroke="#000000" stroke-width="0.134883" fill="#70AD47" transform="matrix(1.00028 0 0 -1 594 330.984)"/><path d="M29.0349 15.8096C29.8862 14.2134 32.1968 11.538 33.8082 10.2458 34.7203 9.51616 35.0547 9.18172 34.9179 9.09052 34.3251 8.77128 31.9384 8.22403 30.4487 8.07201 28.8677 7.9048 27.302 7.9656 24.7025 8.28483L23.9424 8.39124 24.7025 7.92C25.5234 7.41835 27.4388 6.62787 28.6549 6.29343 29.0805 6.17182 30.175 6.03501 31.0871 5.9894 33.0329 5.88299 34.7203 6.14142 36.6813 6.85589 38.0342 7.34234 40.4969 8.64967 40.4665 8.87769 40.4665 8.9537 40.0256 9.19693 39.4936 9.42495 38.1862 9.9722 36.4837 11.0515 33.8082 13.0277 31.7408 14.5479 29.3086 16.1136 28.9893 16.1136 28.9285 16.1136 28.9437 15.9768 29.0349 15.8096Z" stroke="#000000" stroke-width="0.134883" fill="#70AD47" transform="matrix(1.00028 0 0 -1 594 330.984)"/><path d="M55.1056 15.3839C53.8894 14.7151 52.7037 13.9246 51.3204 12.8605 49.2074 11.2491 47.3072 10.033 45.787 9.30334L44.3581 8.63447 45.3614 8.04161C49.7698 5.48775 54.1479 5.01651 58.2523 6.67347 59.3924 7.12952 61.171 8.05681 61.0798 8.13282 61.0494 8.16322 60.3805 8.08721 59.59 7.9656 57.781 7.70718 54.8623 7.69197 53.327 7.9656 52.0196 8.20883 50.013 8.80169 50.013 8.9689 50.013 9.01451 50.3323 9.28814 50.7123 9.56176 52.3085 10.7171 55.0751 13.8334 55.8808 15.3839 56.1545 15.916 56.0632 15.916 55.1056 15.3839Z" stroke="#000000" stroke-width="0.134883" fill="#70AD47" transform="matrix(1.00028 0 0 -1 594 330.984)"/><path d="M41.1201 6.84069C39.5392 6.62787 38.2927 6.23263 36.3621 5.36614 33.6866 4.16522 32.4401 3.9372 28.6549 3.9372 26.9827 3.9372 25.0825 3.998 24.4289 4.07401 23.6384 4.15002 23.2735 4.15002 23.3039 4.04361 23.4256 3.67877 25.3258 2.56906 26.3443 2.24983 27.4236 1.93059 28.9133 1.82418 30.175 1.9762 30.7375 2.05221 30.7831 2.0218 30.8591 1.59616 31.0871 0.532054 31.68 0.0912092 32.4097 0.471247 32.5921 0.577658 33.337 1.20092 34.0514 1.86979 38.5663 6.11102 41.9562 7.12952 45.7262 5.39654 47.2616 4.68207 48.5233 3.73958 50.5755 1.80898 51.9132 0.532054 52.4301 0.136814 52.8557 0.0608061 53.5702-0.0760077 53.9654 0.349635 53.9654 1.27693L53.9654 1.91539 55.6832 2.09781C57.705 2.31063 58.9211 2.59946 60.0004 3.14672 60.8517 3.57236 61.9006 4.51485 61.3382 4.34764 61.171 4.30203 60.4565 4.16522 59.742 4.04361 55.4096 3.29873 52.1413 3.70917 48.3409 5.47255 45.7414 6.68867 43.294 7.14472 41.1201 6.84069Z" stroke="#000000" stroke-width="0.134883" fill="#70AD47" transform="matrix(1.00028 0 0 -1 594 330.984)"/></g></svg>